<svg xmlns="http://www.w3.org/2000/svg" width="116.904" height="116.904" viewBox="0 0 116.904 116.904">
  <path id="Icon_awesome-facebook-square" data-name="Icon awesome-facebook-square" d="M104.378,2.25H12.525A12.525,12.525,0,0,0,0,14.775v91.853a12.525,12.525,0,0,0,12.525,12.525H48.34V79.409H31.9V60.7H48.34V46.444c0-16.218,9.655-25.176,24.443-25.176a99.594,99.594,0,0,1,14.488,1.263V38.448h-8.16c-8.04,0-10.547,4.989-10.547,10.106V60.7H86.511l-2.87,18.707H68.564v39.745h35.815A12.525,12.525,0,0,0,116.9,106.628V14.775A12.525,12.525,0,0,0,104.378,2.25Z" transform="translate(0 -2.25)" fill="#f4f6f8"/>
</svg>
