<svg xmlns="http://www.w3.org/2000/svg" width="126.859" height="126.859" viewBox="0 0 126.859 126.859">
  <g id="Icon_feather-instagram" data-name="Icon feather-instagram" transform="translate(-1.5 -1.5)">
    <path id="Path_1" data-name="Path 1" d="M33.965,3H95.894a30.965,30.965,0,0,1,30.965,30.965V95.894a30.965,30.965,0,0,1-30.965,30.965H33.965A30.965,30.965,0,0,1,3,95.894V33.965A30.965,30.965,0,0,1,33.965,3Z" transform="translate(0 0)" fill="none" stroke="#f4f6f8" stroke-linecap="round" stroke-linejoin="round" stroke-width="3"/>
    <path id="Path_2" data-name="Path 2" d="M61.341,33.074A24.772,24.772,0,1,1,40.471,12.2a24.772,24.772,0,0,1,20.87,20.87Z" transform="translate(28.36 27.954)" fill="none" stroke="#f4f6f8" stroke-linecap="round" stroke-linejoin="round" stroke-width="3"/>
    <path id="Path_3" data-name="Path 3" d="M26.25,9.75h0" transform="translate(72.741 21.118)" fill="none" stroke="#f4f6f8" stroke-linecap="round" stroke-linejoin="round" stroke-width="3"/>
  </g>
</svg>
