<svg xmlns="http://www.w3.org/2000/svg" width="122.458" height="122.458" viewBox="0 0 122.458 122.458">
  <path id="Icon_awesome-twitter-square" data-name="Icon awesome-twitter-square" d="M109.338,2.25H13.121A13.124,13.124,0,0,0,0,15.371v96.217a13.124,13.124,0,0,0,13.121,13.121h96.217a13.124,13.124,0,0,0,13.121-13.121V15.371A13.124,13.124,0,0,0,109.338,2.25ZM95.971,45.657c.055.765.055,1.558.055,2.323,0,23.7-18.041,51.006-51.006,51.006A50.771,50.771,0,0,1,17.494,90.95a37.769,37.769,0,0,0,4.319.219,35.943,35.943,0,0,0,22.25-7.654A17.951,17.951,0,0,1,27.307,71.078,19.321,19.321,0,0,0,35.4,70.75a17.929,17.929,0,0,1-14.351-17.6v-.219A17.916,17.916,0,0,0,29.139,55.2a17.89,17.89,0,0,1-7.982-14.925,17.7,17.7,0,0,1,2.433-9.048A50.9,50.9,0,0,0,60.546,49.976,17.966,17.966,0,0,1,91.133,33.6,35.129,35.129,0,0,0,102.5,29.284a17.881,17.881,0,0,1-7.872,9.868,35.676,35.676,0,0,0,10.332-2.788A37.735,37.735,0,0,1,95.971,45.657Z" transform="translate(0 -2.25)" fill="#f4f6f8"/>
</svg>
